P2
# haus.pgm
5 8
15
15 15  8 15 15
15  8  8  8 15
 8  8  8  8  8
12 12 12 12 12
12  5 12  5 12
12 12 12 12 12
12  5 12  5 12
12 12 12 12 12